<svg width="32" height="32" viewBox="0 0 32 32" fill="none" xmlns="http://www.w3.org/2000/svg">
<path d="M22.6172 8.91406C22.9089 9.11458 23.0365 9.39714 23 9.76172L21.25 21.1367C21.1953 21.4102 21.0495 21.6198 20.8125 21.7656C20.5573 21.8932 20.3021 21.9023 20.0469 21.793L16.7656 20.4531L14.9062 22.4766C14.6146 22.75 14.2865 22.8229 13.9219 22.6953C13.5755 22.5312 13.3932 22.2578 13.375 21.875V19.5781C13.375 19.4688 13.4115 19.3776 13.4844 19.3047L18.0781 14.3008C18.224 14.1003 18.2148 13.8997 18.0508 13.6992C17.8685 13.5352 17.668 13.526 17.4492 13.6719L11.8984 18.6211L9.49219 17.418C9.18229 17.2539 9.01823 16.9987 9 16.6523C9 16.306 9.14583 16.0417 9.4375 15.8594L21.6875 8.85938C22.0156 8.69531 22.3255 8.71354 22.6172 8.91406Z" fill="white"/>
</svg>
