<svg width="32" height="32" viewBox="0 0 32 32" fill="none" xmlns="http://www.w3.org/2000/svg">
<rect width="32" height="32" rx="16" fill="#F5F6F7"/>
<path d="M20.1289 12.8789L17.2305 15.75L20.1289 18.6211C20.293 18.8034 20.375 19.013 20.375 19.25C20.375 19.487 20.293 19.6966 20.1289 19.8789C19.9466 20.043 19.737 20.125 19.5 20.125C19.263 20.125 19.0534 20.043 18.8711 19.8789L16 16.9805L13.1289 19.8789C12.9466 20.043 12.737 20.125 12.5 20.125C12.263 20.125 12.0534 20.043 11.8711 19.8789C11.707 19.6966 11.625 19.487 11.625 19.25C11.625 19.013 11.707 18.8034 11.8711 18.6211L14.7695 15.75L11.8711 12.8789C11.707 12.6966 11.625 12.487 11.625 12.25C11.625 12.013 11.707 11.8034 11.8711 11.6211C12.0534 11.457 12.263 11.375 12.5 11.375C12.737 11.375 12.9466 11.457 13.1289 11.6211L16 14.5195L18.8711 11.6211C19.0534 11.457 19.263 11.375 19.5 11.375C19.737 11.375 19.9466 11.457 20.1289 11.6211C20.293 11.8034 20.375 12.013 20.375 12.25C20.375 12.487 20.293 12.6966 20.1289 12.8789Z" fill="#7C8AA6"/>
</svg>
