<svg width="24" height="24" viewBox="0 0 24 24" fill="none" xmlns="http://www.w3.org/2000/svg">
<path d="M2.12109 3.42578L6.05859 6.51953C6.83203 5.88672 7.71094 5.37109 8.69531 4.97266C9.70312 4.59766 10.8047 4.39844 12 4.375C13.4297 4.39844 14.707 4.67969 15.832 5.21875C16.957 5.75781 17.9414 6.42578 18.7852 7.22266C19.6055 7.99609 20.2852 8.79297 20.8242 9.61328C21.3633 10.4336 21.7734 11.1719 22.0547 11.8281C22.1484 12.1094 22.1484 12.3906 22.0547 12.6719C21.7969 13.2578 21.4336 13.9141 20.9648 14.6406C20.4961 15.3906 19.9219 16.1289 19.2422 16.8555L22.9336 19.7383C23.3086 20.0898 23.3555 20.4883 23.0742 20.9336C22.7227 21.3086 22.3242 21.3555 21.8789 21.0742L1.06641 4.76172C0.691406 4.41016 0.644531 4.01172 0.925781 3.56641C1.27734 3.19141 1.67578 3.14453 2.12109 3.42578ZM8.58984 8.52344L11.7539 10.9844C11.918 10.7031 12 10.375 12 10C12 9.74219 11.9648 9.50781 11.8945 9.29688C11.8477 9.0625 11.9297 8.92188 12.1406 8.875C12.8672 8.92188 13.5234 9.16797 14.1094 9.61328C14.6719 10.0586 15.0586 10.6445 15.2695 11.3711C15.457 12.168 15.3984 12.918 15.0938 13.6211L16.4648 14.6758C16.8633 13.9492 17.0625 13.1406 17.0625 12.25C17.0156 10.8203 16.5234 9.625 15.5859 8.66406C14.625 7.72656 13.4297 7.23437 12 7.1875C10.6641 7.21094 9.52734 7.65625 8.58984 8.52344ZM13.8633 16.9609L16.4297 19C15.1641 19.7031 13.6875 20.0781 12 20.125C10.5703 20.1016 9.29297 19.8203 8.16797 19.2812C7.04297 18.7422 6.07031 18.0742 5.25 17.2773C4.40625 16.5039 3.71484 15.707 3.17578 14.8867C2.63672 14.0664 2.23828 13.3281 1.98047 12.6719C1.86328 12.3906 1.86328 12.1094 1.98047 11.8281C2.30859 10.9844 2.87109 10.0234 3.66797 8.94531L6.97266 11.5469C6.94922 11.7812 6.9375 12.0156 6.9375 12.25C6.98438 13.6797 7.47656 14.875 8.41406 15.8359C9.375 16.7734 10.5703 17.2656 12 17.3125C12.6562 17.3125 13.2773 17.1953 13.8633 16.9609Z" fill="#1238C9"/>
</svg>
