<svg width="24" height="24" viewBox="0 0 24 24" fill="none" xmlns="http://www.w3.org/2000/svg">
<path d="M17.2734 15.9766C17.7305 16.3984 17.7305 17.1367 17.2734 17.5586C17.0625 17.7695 16.7812 17.875 16.5 17.875C16.1836 17.875 15.9023 17.7695 15.6914 17.5586L12 13.8672L8.27344 17.5586C8.0625 17.7695 7.78125 17.875 7.5 17.875C7.18359 17.875 6.90234 17.7695 6.69141 17.5586C6.23438 17.1367 6.23438 16.3984 6.69141 15.9766L10.3828 12.25L6.69141 8.55859C6.23438 8.13672 6.23438 7.39844 6.69141 6.97656C7.11328 6.51953 7.85156 6.51953 8.27344 6.97656L12 10.668L15.6914 6.97656C16.1133 6.51953 16.8516 6.51953 17.2734 6.97656C17.7305 7.39844 17.7305 8.13672 17.2734 8.55859L13.582 12.2852L17.2734 15.9766Z" fill="black"/>
</svg>
