<svg width="24" height="24" viewBox="0 0 24 24" fill="none" xmlns="http://www.w3.org/2000/svg">
<path d="M4.6875 5.5H19.3125C19.7812 5.52344 20.1797 5.6875 20.5078 5.99219C20.8125 6.32031 20.9766 6.71875 21 7.1875C20.9766 7.75 20.7539 8.19531 20.332 8.52344L12.668 14.2891C12.2227 14.5703 11.7773 14.5703 11.332 14.2891L3.66797 8.52344C3.24609 8.19531 3.02344 7.75 3 7.1875C3.02344 6.71875 3.1875 6.32031 3.49219 5.99219C3.82031 5.6875 4.21875 5.52344 4.6875 5.5ZM3 9.4375L10.6641 15.168C11.0625 15.4727 11.5078 15.625 12 15.625C12.4922 15.625 12.9375 15.4727 13.3359 15.168L21 9.4375V16.75C20.9766 17.3828 20.7539 17.9102 20.332 18.332C19.9102 18.7539 19.3828 18.9766 18.75 19H5.25C4.61719 18.9766 4.08984 18.7539 3.66797 18.332C3.24609 17.9102 3.02344 17.3828 3 16.75V9.4375V16.75V9.4375Z" fill="black"/>
</svg>
