<svg width="32" height="32" viewBox="0 0 32 32" fill="none" xmlns="http://www.w3.org/2000/svg">
<path d="M24.7891 21.9102C25.3516 22.8945 24.6484 24.125 23.4883 24.125H8.47656C7.31641 24.125 6.61328 22.8945 7.17578 21.9102L14.6992 9.11328C15.2617 8.12891 16.7031 8.12891 17.3008 9.11328L24.7891 21.9102ZM15.1562 13.1562V17.6562C15.1562 18.1484 15.5781 18.5 16 18.5C16.457 18.5 16.8438 18.1484 16.8438 17.6562V13.1562C16.8438 12.6992 16.457 12.3125 16 12.3125C15.5078 12.3125 15.1562 12.6992 15.1562 13.1562ZM16 21.875C16.5977 21.875 17.0898 21.3828 17.0898 20.7852C17.0898 20.1875 16.5977 19.6953 16 19.6953C15.3672 19.6953 14.875 20.1875 14.875 20.7852C14.875 21.3828 15.3672 21.875 16 21.875Z" fill="white"/>
</svg>
