<svg width="24" height="24" viewBox="0 0 24 24" fill="none" xmlns="http://www.w3.org/2000/svg">
<path d="M12 4.375C13.4297 4.39844 14.707 4.67969 15.832 5.21875C16.957 5.75781 17.9414 6.42578 18.7852 7.22266C19.6055 7.99609 20.2852 8.79297 20.8242 9.61328C21.3633 10.4336 21.7734 11.1719 22.0547 11.8281C22.1719 12.1094 22.1719 12.3906 22.0547 12.6719C21.7734 13.3281 21.3633 14.0664 20.8242 14.8867C20.2852 15.707 19.6055 16.5039 18.7852 17.2773C17.9414 18.0742 16.957 18.7422 15.832 19.2812C14.707 19.8203 13.4297 20.1016 12 20.125C10.5703 20.1016 9.29297 19.8203 8.16797 19.2812C7.04297 18.7422 6.05859 18.0742 5.21484 17.2773C4.39453 16.5039 3.71484 15.707 3.17578 14.8867C2.63672 14.0664 2.23828 13.3281 1.98047 12.6719C1.86328 12.3906 1.86328 12.1094 1.98047 11.8281C2.23828 11.1719 2.63672 10.4336 3.17578 9.61328C3.71484 8.79297 4.39453 7.99609 5.21484 7.22266C6.05859 6.42578 7.04297 5.75781 8.16797 5.21875C9.29297 4.67969 10.5703 4.39844 12 4.375ZM6.9375 12.25C6.9375 13.1641 7.16016 14.0078 7.60547 14.7812C8.05078 15.5547 8.67188 16.1758 9.46875 16.6445C10.2656 17.0898 11.1094 17.3125 12 17.3125C12.8906 17.3125 13.7344 17.0898 14.5312 16.6445C15.3281 16.1758 15.9492 15.5547 16.3945 14.7812C16.8398 14.0078 17.0625 13.1641 17.0625 12.25C17.0625 11.3359 16.8398 10.4922 16.3945 9.71875C15.9492 8.94531 15.3281 8.32422 14.5312 7.85547C13.7344 7.41016 12.8906 7.1875 12 7.1875C11.1094 7.1875 10.2656 7.41016 9.46875 7.85547C8.67188 8.32422 8.05078 8.94531 7.60547 9.71875C7.16016 10.4922 6.9375 11.3359 6.9375 12.25ZM12 10C12 9.74219 11.9648 9.50781 11.8945 9.29688C11.8477 9.0625 11.9297 8.92188 12.1406 8.875C12.8672 8.92188 13.5234 9.16797 14.1094 9.61328C14.6719 10.0586 15.0586 10.6445 15.2695 11.3711C15.4805 12.3086 15.3633 13.1641 14.918 13.9375C14.4727 14.7109 13.793 15.2383 12.8789 15.5195C11.9414 15.7305 11.0859 15.6133 10.3125 15.168C9.53906 14.7227 9.01172 14.043 8.73047 13.1289C8.66016 12.8711 8.625 12.625 8.625 12.3906C8.67188 12.1797 8.8125 12.0977 9.04688 12.1445C9.25781 12.2148 9.49219 12.25 9.75 12.25C10.3828 12.2266 10.9102 12.0039 11.332 11.582C11.7539 11.1602 11.9766 10.6328 12 10Z" fill="#1238C9"/>
</svg>
