<svg width="25" height="24" viewBox="0 0 25 24" fill="none" xmlns="http://www.w3.org/2000/svg">
<path d="M17.5434 22.86C17.3512 22.8599 17.1594 22.8407 16.9713 22.8027C15.7017 22.5459 12.9498 21.8401 12.8333 21.8101C14.611 21.3531 16.9676 20.7939 19.4334 20.52C19.8161 20.4773 20.2037 20.4499 20.5851 20.4387H20.6007C20.6919 20.4375 20.7812 20.464 20.8558 20.5143C20.9304 20.5646 20.9865 20.6362 21.0161 20.7188C21.0494 20.8025 21.0543 20.8942 21.0299 20.9807C21.0056 21.0672 20.9533 21.1442 20.8806 21.2005C20.2278 21.7243 19.521 22.183 18.7712 22.5697C18.3932 22.762 17.9714 22.8617 17.5434 22.86ZM4.67664 19.5815C4.60878 19.5815 4.53983 19.5815 4.47166 19.5801C3.55013 19.5652 2.71412 19.1259 2.23584 18.4035C2.23398 18.4011 2.23225 18.3987 2.23068 18.3961C2.20754 18.3612 2.18565 18.3247 2.16454 18.2895C2.14891 18.2645 2.13452 18.2397 2.1192 18.2147C1.91923 17.8545 1.89374 17.5507 2.04353 17.3121C2.23115 17.0127 2.8023 16.6568 4.45712 16.6568C4.88026 16.6573 5.30306 16.6801 5.72356 16.7253C7.48471 16.9208 9.81528 17.4031 12.8486 18.1996C11.0662 18.6583 8.70284 19.2192 6.23343 19.4936C5.71668 19.5514 5.19689 19.5806 4.67664 19.5812V19.5815ZM20.8157 15.3231C20.525 15.3245 20.2345 15.3107 19.9454 15.282C18.9073 15.1734 16.6184 14.8423 12.954 13.8448H12.9514C12.8979 13.8298 12.863 13.8207 12.8485 13.8169C14.6206 13.3614 16.9707 12.804 19.4334 12.5295C19.9486 12.472 20.4669 12.4429 20.9856 12.4422C21.4726 12.4421 21.9592 12.4693 22.4428 12.5238C22.8403 12.5684 23.2226 12.697 23.5619 12.9002C23.9012 13.1035 24.1891 13.3764 24.4049 13.6991C24.5514 13.9408 24.5644 14.1653 24.4435 14.3661C24.0476 15.0248 22.2859 15.3242 20.8162 15.3242L20.8157 15.3231ZM4.68023 11.5672C4.19357 11.5674 3.70732 11.5402 3.22398 11.4859C2.82641 11.4413 2.44414 11.3127 2.1048 11.1094C1.76546 10.9062 1.47751 10.6332 1.26177 10.3104C1.11527 10.0686 1.10229 9.84422 1.22315 9.64332C1.61903 8.98462 3.38158 8.68521 4.85175 8.68521C5.14208 8.6839 5.43227 8.69759 5.72106 8.72622C6.76174 8.83521 9.05447 9.16696 12.7175 10.1656L12.8182 10.1929C11.044 10.6486 8.69236 11.2062 6.23296 11.4791C5.71747 11.5369 5.19893 11.5662 4.67992 11.5669L4.68023 11.5672ZM21.2097 7.35148C20.7866 7.35105 20.3638 7.32826 19.9432 7.28322C18.1838 7.08665 15.8533 6.60505 12.8178 5.80847C14.6012 5.34978 16.9646 4.78868 19.4331 4.51442C19.9468 4.45682 20.4637 4.42762 20.9809 4.42699C21.0515 4.42699 21.1231 4.42699 21.1937 4.42864C22.1162 4.44271 22.9516 4.88255 23.4296 5.60532L23.4313 5.60772C23.4325 5.60918 23.4335 5.61073 23.4344 5.61236C23.4572 5.64679 23.479 5.68287 23.4999 5.71715C23.5156 5.74215 23.5312 5.7679 23.5468 5.79275C23.7468 6.15309 23.7721 6.45685 23.6223 6.69548C23.4354 6.99474 22.8644 7.35118 21.2094 7.35118L21.2097 7.35148ZM5.06595 3.56978C4.97468 3.57092 4.88537 3.54443 4.81076 3.49407C4.73616 3.44371 4.68008 3.37208 4.65053 3.28939C4.6173 3.2057 4.61253 3.11411 4.63691 3.02767C4.66128 2.94124 4.71354 2.86439 4.78624 2.80808C5.43915 2.28447 6.14588 1.82567 6.89557 1.43873C7.27343 1.24668 7.69498 1.14696 8.12278 1.14845C8.31507 1.14854 8.50685 1.1677 8.69502 1.20564C9.9316 1.45565 12.5399 2.12273 12.8332 2.19804C11.0544 2.65538 8.69643 3.21468 6.23264 3.48834C5.84896 3.53116 5.46152 3.55856 5.08127 3.56948L5.06595 3.56978Z" fill="#D3E0E7"/>
<path d="M12.8333 23.9997C9.88931 24.0038 7.03865 23.0111 4.78523 21.1972C4.71307 21.141 4.66131 21.0644 4.63736 20.9784C4.61341 20.8924 4.61848 20.8013 4.65186 20.7182C4.68171 20.6354 4.73802 20.5638 4.81279 20.5135C4.88756 20.4632 4.97699 20.4367 5.06838 20.4378C5.07307 20.4378 5.07776 20.4378 5.08261 20.4378C5.46473 20.4482 5.85185 20.4752 6.23335 20.5179C8.67243 20.7888 12.9574 21.8423 13.438 21.9616L13.4518 21.9649C14.3685 22.1963 16.0447 22.6125 16.9716 22.8C17.1594 22.838 17.3509 22.8573 17.5429 22.8574C17.9649 22.8587 18.3808 22.7614 18.7547 22.5742C16.9349 23.5121 14.9001 24.0021 12.8334 24L12.8333 23.9997ZM20.9888 19.5711C20.4691 19.5706 19.9498 19.5414 19.4336 19.4837C16.9633 19.2088 14.6166 18.6518 12.8487 18.1971C9.81552 17.401 7.48588 16.9186 5.72333 16.7228C5.30282 16.6777 4.88003 16.655 4.45689 16.6547C2.80175 16.6547 2.2306 17.011 2.04314 17.3098C1.8932 17.5485 1.91806 17.8522 2.11865 18.2125C1.64473 17.4664 1.25739 16.673 0.963531 15.8463C0.841928 15.4896 0.804863 15.1114 0.855033 14.7393C0.905202 14.3671 1.04134 14.0104 1.25356 13.6949C1.46997 13.3698 1.75933 13.095 2.10059 12.8904C2.44186 12.6858 2.82645 12.5566 3.2264 12.5122C3.70996 12.4579 4.19642 12.4308 4.68328 12.4309C5.2013 12.4316 5.71884 12.4608 6.23335 12.5184C8.7037 12.7926 11.0659 13.354 12.8486 13.8124C12.8626 13.816 12.8955 13.825 12.9457 13.8388C14.5176 14.2677 17.5169 15.025 19.9455 15.2789C20.2348 15.3077 20.5254 15.3215 20.8162 15.3202C21.5824 15.3202 22.3833 15.237 23.0145 15.0919C23.7664 14.919 24.2607 14.6669 24.4436 14.3626C24.5644 14.1617 24.5515 13.9373 24.4051 13.6955C24.5508 13.9114 24.6619 14.1469 24.735 14.3942C24.7359 14.3938 24.7367 14.3933 24.7374 14.3927L24.74 14.4057C24.74 14.41 24.7417 14.4144 24.7428 14.4186C24.8032 14.6339 24.8332 14.856 24.832 15.0789C24.832 15.0939 24.832 15.1089 24.8304 15.1223C24.8304 15.1307 24.8295 15.1392 24.8291 15.1476C24.826 15.2425 24.8171 15.337 24.8026 15.4309C24.7991 15.4542 24.7955 15.4771 24.7913 15.5003C24.7711 15.6126 24.7429 15.7235 24.707 15.8321V15.8349C24.7067 15.8366 24.7061 15.8383 24.7055 15.8399C24.3903 16.7342 23.9656 17.5896 23.4403 18.3883C22.9628 19.1132 22.1269 19.5548 21.2032 19.5695C21.1319 19.5705 21.06 19.5711 20.9888 19.5711ZM20.9868 11.5721C20.4677 11.5715 19.9491 11.5423 19.4335 11.4845C16.9631 11.2102 14.6003 10.6488 12.8182 10.1906L12.7244 10.1653C11.1526 9.7361 8.15366 8.97829 5.72083 8.72364C5.43199 8.69504 5.14175 8.6813 4.85136 8.68247C4.08524 8.68247 3.28378 8.76571 2.65244 8.91077C1.9007 9.08353 1.40632 9.33578 1.22401 9.64013C1.103 9.84104 1.11597 10.0654 1.26232 10.3074C1.11651 10.0917 1.00506 9.85642 0.931635 9.60929L0.930072 9.61019C0.928307 9.60613 0.927149 9.60184 0.926632 9.59747C0.92585 9.59313 0.925069 9.58864 0.923818 9.58429C0.863595 9.36895 0.833624 9.14688 0.834698 8.92395C0.834698 8.90897 0.834698 8.8949 0.836261 8.88083C0.836261 8.87245 0.837199 8.86406 0.837512 8.85553C0.840765 8.7606 0.849744 8.66593 0.864404 8.57199C0.867844 8.54923 0.871596 8.52618 0.875662 8.50312C0.896001 8.39077 0.924155 8.27984 0.959935 8.17108C0.960444 8.16956 0.960861 8.16801 0.961186 8.16644C0.961186 8.16539 0.961186 8.16434 0.961968 8.16344C1.27698 7.26908 1.70162 6.41363 2.22701 5.61501C2.70435 4.89014 3.54036 4.44851 4.46392 4.43369C4.53428 4.43264 4.60573 4.43204 4.6764 4.43204C5.19671 4.43267 5.71656 4.46196 6.23335 4.51977C8.69651 4.79298 11.0463 5.35064 12.8181 5.80604C15.8554 6.60277 18.1859 7.08497 19.9433 7.28033C20.3635 7.32533 20.7859 7.34807 21.2087 7.34845C22.8646 7.34845 23.4357 6.99215 23.6234 6.69319C23.7731 6.45456 23.7484 6.15096 23.5478 5.79062C24.0218 6.53641 24.4093 7.32956 24.7033 8.15596C24.8248 8.51283 24.8618 8.89114 24.8116 9.26341C24.7613 9.63568 24.6251 9.99256 24.4128 10.3081C24.1964 10.6331 23.9071 10.9079 23.566 11.1124C23.2248 11.317 22.8404 11.4463 22.4406 11.4908C21.9579 11.545 21.4724 11.572 20.9865 11.5718L20.9868 11.5721ZM20.5983 3.566H20.5841C20.2046 3.55567 19.8179 3.52887 19.4336 3.48636C17.0679 3.22348 13.0245 2.23917 12.2379 2.04455L12.2155 2.03901C11.296 1.80697 9.61601 1.38989 8.69573 1.20366C8.50778 1.16558 8.31621 1.14636 8.12411 1.14632C7.70222 1.14503 7.28634 1.24209 6.91238 1.42911C9.11731 0.293345 11.6275 -0.182564 14.1181 0.0629879C16.6087 0.30854 18.965 1.26425 20.8819 2.8064C20.9539 2.86245 21.0056 2.93884 21.0296 3.02468C21.0536 3.11052 21.0486 3.20142 21.0154 3.28441C20.9857 3.36744 20.9294 3.43938 20.8545 3.48994C20.7796 3.54051 20.6899 3.56713 20.5983 3.566Z" fill="url(#paint0_linear_215_3169)"/>
<defs>
<linearGradient id="paint0_linear_215_3169" x1="0.731037" y1="12.0462" x2="24.731" y2="12.0462" gradientUnits="userSpaceOnUse">
<stop stop-color="#ED0080"/>
<stop offset="0.49" stop-color="#FF5715"/>
<stop offset="1" stop-color="#EAB80F"/>
</linearGradient>
</defs>
</svg>
