<svg width="24" height="24" viewBox="0 0 24 24" fill="none" xmlns="http://www.w3.org/2000/svg">
<path d="M12 20C10.3958 20 8.90625 19.7422 7.53125 19.2266C6.98698 19.6562 6.21354 20.1003 5.21094 20.5586C4.1224 21.0456 2.94792 21.3177 1.6875 21.375C1.40104 21.375 1.1862 21.2318 1.04297 20.9453C0.957031 20.6589 1.01432 20.4154 1.21484 20.2148C1.21484 20.1862 1.21484 20.1719 1.21484 20.1719C1.24349 20.1719 1.25781 20.1576 1.25781 20.1289C1.3151 20.0716 1.38672 19.9857 1.47266 19.8711C1.67318 19.6706 1.88802 19.3698 2.11719 18.9688C2.60417 18.224 2.91927 17.3216 3.0625 16.2617C1.71615 14.7721 1.02865 13.0391 1 11.0625C1.02865 9.40104 1.52995 7.89714 2.50391 6.55078C3.47786 5.20443 4.79557 4.13021 6.45703 3.32812C8.08984 2.55469 9.9375 2.15365 12 2.125C14.0625 2.15365 15.9102 2.55469 17.543 3.32812C19.2044 4.13021 20.5221 5.20443 21.4961 6.55078C22.4701 7.89714 22.9714 9.40104 23 11.0625C22.9714 12.724 22.4701 14.2279 21.4961 15.5742C20.5221 16.9206 19.2044 17.9948 17.543 18.7969C15.9102 19.5703 14.0625 19.9714 12 20ZM8.30469 7.15234L8.26172 7.23828C8.11849 7.83984 8.33333 8.26953 8.90625 8.52734C9.50781 8.69922 9.95182 8.4987 10.2383 7.92578V7.83984C10.2956 7.69661 10.4102 7.625 10.582 7.625H13.0742C13.4753 7.65365 13.6901 7.86849 13.7188 8.26953C13.7188 8.52734 13.6042 8.71354 13.375 8.82812L11.4844 9.94531C11.1406 10.1458 10.9688 10.4466 10.9688 10.8477V11.4062C11.026 12.0365 11.3698 12.3802 12 12.4375C12.6302 12.3802 12.974 12.0365 13.0312 11.4062L14.4062 10.6328C15.2943 10.0885 15.7526 9.30078 15.7812 8.26953C15.7526 7.49609 15.4948 6.86589 15.0078 6.37891C14.4922 5.86328 13.8477 5.59115 13.0742 5.5625H10.582C10.0378 5.5625 9.5651 5.70573 9.16406 5.99219C8.76302 6.27865 8.47656 6.66536 8.30469 7.15234ZM10.625 15.1875C10.625 15.5885 10.7539 15.918 11.0117 16.1758C11.2695 16.4336 11.599 16.5625 12 16.5625C12.401 16.5625 12.7305 16.4336 12.9883 16.1758C13.2461 15.918 13.375 15.5885 13.375 15.1875C13.375 14.7865 13.2461 14.457 12.9883 14.1992C12.7305 13.9414 12.401 13.8125 12 13.8125C11.599 13.8125 11.2695 13.9414 11.0117 14.1992C10.7539 14.457 10.625 14.7865 10.625 15.1875Z" fill="black"/>
</svg>
