<svg width="141" height="34" viewBox="0 0 141 34" fill="none" xmlns="http://www.w3.org/2000/svg">
<path d="M91.2835 29.3585H88.0729V11.4968H90.6898L91.1415 12.7502C92.2454 11.7862 93.7099 11.2549 95.2651 11.2549C99.3298 11.2549 101.759 14.8749 101.759 18.3749C101.759 21.8749 99.321 25.4961 95.242 25.4961C93.7906 25.4961 92.3476 25.0099 91.2837 24.1621V29.3578L91.2835 29.3585ZM94.8317 14.2245C92.7817 14.2245 91.1142 16.0976 91.1142 18.3998C91.1142 20.6758 92.7817 22.5274 94.8317 22.5274C96.9023 22.5274 98.5243 20.7037 98.5243 18.3756C98.5243 16.0475 96.9023 14.2245 94.8317 14.2245ZM134.741 25.4967C130.682 25.4967 127.621 22.4563 127.621 18.4246C127.621 14.3375 130.537 11.2558 134.404 11.2558C138.571 11.2558 140.751 14.7406 140.751 18.1827C140.751 18.8424 140.67 19.2979 140.669 19.302L140.581 19.8008H131.001C131.197 20.6164 131.652 21.3027 132.317 21.7848C132.987 22.2705 133.842 22.5272 134.789 22.5272C135.899 22.5272 137.16 22.245 138.339 21.7326L138.888 21.4936L140.038 24.0832L139.53 24.3431C139.002 24.6145 137.094 25.4967 134.741 25.4967ZM134.524 14.2245C132.815 14.2245 131.436 15.3332 131.012 17.0489H137.606C137.52 16.5029 137.298 15.7225 136.719 15.1063C136.17 14.5211 135.431 14.2245 134.524 14.2245ZM68.2251 25.4967C64.2734 25.4967 61.1778 22.3688 61.1778 18.3756C61.1778 14.3824 64.2734 11.2555 68.2251 11.2555C72.2053 11.2555 75.322 14.383 75.322 18.3756C75.322 22.3682 72.2047 25.4967 68.2251 25.4967ZM68.2251 14.2245C66.0872 14.2245 64.4124 16.0479 64.4124 18.3756C64.4124 20.7033 66.0872 22.5274 68.2251 22.5274C70.3777 22.5274 72.0639 20.7037 72.0639 18.3756C72.0639 16.009 70.4135 14.2245 68.2251 14.2245ZM53.8007 25.4967C49.8488 25.4967 46.7534 22.3688 46.7534 18.3756C46.7534 14.3824 49.8488 11.2555 53.8007 11.2555C56.2856 11.2555 58.5365 12.4956 59.8241 14.5726L56.9812 15.9947C56.2775 14.8697 55.1175 14.2245 53.8007 14.2245C51.6628 14.2245 49.9882 16.0479 49.9882 18.3756C49.9882 20.7033 51.6628 22.5274 53.8007 22.5274C54.4404 22.5303 55.0694 22.3633 55.6235 22.0436C56.1684 21.7268 56.6286 21.2829 56.9649 20.7497L59.8247 22.179C58.5368 24.2569 56.2849 25.4967 53.8007 25.4967ZM124.126 25.2548H120.94V14.7085L119.293 14.1147V11.4979H120.94V9.0829C120.94 6.48957 122.803 5.94531 124.367 5.94531H126.291V8.68993H125.411C125.07 8.69034 124.743 8.82604 124.502 9.06725C124.261 9.30846 124.125 9.63549 124.125 9.97659V11.4974H126.291V14.1143H124.125L124.126 25.2548ZM116.295 25.2548H113.085V14.7085L111.439 14.1147V11.4979H116.296V25.2562L116.295 25.2548ZM110.108 25.2548H108.184C106.62 25.2548 104.757 24.7104 104.757 22.117V5.94531H107.943V21.2244C107.943 21.5656 108.079 21.8927 108.32 22.1339C108.561 22.3751 108.888 22.5108 109.229 22.5111H110.109V25.2548H110.108ZM81.531 25.2548H78.3204V11.4968H80.9373L81.3579 12.6623C82.2681 11.8889 83.4635 11.4968 84.9105 11.4968H85.5139V14.6832H84.9105C82.3649 14.6832 81.668 16.1073 81.5314 17.302V25.2551L81.531 25.2548ZM114.436 10.6765C113.367 10.6765 112.53 9.82793 112.53 8.74491C112.53 7.66188 113.367 6.81393 114.436 6.81393C115.496 6.81393 116.392 7.68717 116.392 8.72094C116.391 9.23943 116.185 9.73658 115.819 10.1032C115.452 10.4699 114.955 10.6761 114.436 10.6765Z" fill="white"/>
<path d="M23.9215 32.3802C23.6491 32.38 23.3775 32.3528 23.111 32.2989C21.3124 31.9352 17.4139 30.9352 17.2488 30.8928C19.7673 30.2453 23.1057 29.4532 26.5989 29.0651C27.1412 29.0047 27.6902 28.9658 28.2305 28.9499H28.2526C28.3819 28.9483 28.5084 28.9858 28.614 29.057C28.7197 29.1283 28.7992 29.2297 28.8411 29.3467C28.8883 29.4654 28.8952 29.5952 28.8607 29.7178C28.8262 29.8404 28.7521 29.9494 28.6491 30.0292C27.7243 30.7712 26.7231 31.4211 25.6609 31.9689C25.1254 32.2412 24.5278 32.3825 23.9215 32.3802ZM5.69353 27.7356C5.5974 27.7356 5.49972 27.7356 5.40315 27.7337C4.09764 27.7124 2.91329 27.0902 2.23573 26.0667C2.23309 26.0634 2.23065 26.0599 2.22842 26.0563C2.19564 26.0069 2.16463 25.9551 2.13473 25.9053C2.11258 25.8699 2.0922 25.8347 2.0705 25.7992C1.7872 25.289 1.7511 24.8587 1.96329 24.5206C2.22909 24.0964 3.03822 23.5923 5.38255 23.5923C5.982 23.5929 6.58096 23.6252 7.17668 23.6892C9.67163 23.9662 12.9733 24.6496 17.2706 25.7778C14.7455 26.4276 11.3973 27.2223 7.89898 27.6111C7.16693 27.6929 6.43056 27.7343 5.69353 27.7351V27.7356ZM28.5572 21.7029C28.1454 21.7048 27.7339 21.6853 27.3243 21.6446C25.8536 21.4908 22.6111 21.0217 17.4198 19.6086H17.4161C17.3403 19.5874 17.2909 19.5744 17.2703 19.5691C19.7808 18.9238 23.1101 18.1342 26.5989 17.7452C27.3289 17.6638 28.0631 17.6226 28.798 17.6216C29.4878 17.6214 30.1772 17.66 30.8623 17.7372C31.4255 17.8004 31.9669 17.9825 32.4476 18.2705C32.9283 18.5584 33.3362 18.945 33.6419 19.4022C33.8494 19.7445 33.8678 20.0626 33.6966 20.347C33.1358 21.2802 30.6399 21.7044 28.5579 21.7044L28.5572 21.7029ZM5.69863 16.382C5.00919 16.3822 4.32033 16.3438 3.6356 16.2668C3.07237 16.2036 2.53083 16.0215 2.0501 15.7335C1.56936 15.4455 1.16144 15.0589 0.855802 14.6015C0.648259 14.259 0.629874 13.9411 0.801092 13.6565C1.36192 12.7233 3.85887 12.2992 5.94161 12.2992C6.35291 12.2973 6.76402 12.3167 7.17314 12.3573C8.64743 12.5117 11.8955 12.9816 17.0847 14.3964L17.2274 14.435C14.714 15.0806 11.3825 15.8706 7.89832 16.2572C7.16804 16.3391 6.43345 16.3806 5.69818 16.3815L5.69863 16.382ZM29.1154 10.4097C28.5159 10.4091 27.917 10.3768 27.3212 10.313C24.8287 10.0345 21.5271 9.35228 17.2269 8.22379C19.7533 7.57397 23.1015 6.77908 26.5985 6.39055C27.3263 6.30894 28.0585 6.26759 28.7913 6.26669C28.8912 6.26669 28.9927 6.26669 29.0928 6.26903C30.3996 6.28896 31.5831 6.91206 32.2602 7.93599L32.2626 7.93939C32.2643 7.94146 32.2658 7.94366 32.2671 7.94596C32.2994 7.99474 32.3302 8.04585 32.3599 8.09442C32.382 8.12984 32.4042 8.16631 32.4263 8.20152C32.7096 8.712 32.7455 9.14232 32.5333 9.48037C32.2684 9.90433 31.4595 10.4093 29.1149 10.4093L29.1154 10.4097ZM6.24506 5.05231C6.11576 5.05393 5.98923 5.01639 5.88354 4.94505C5.77785 4.87371 5.69841 4.77223 5.65654 4.65508C5.60947 4.53653 5.60272 4.40677 5.63725 4.28432C5.67177 4.16187 5.74581 4.053 5.8488 3.97324C6.77376 3.23145 7.77496 2.58148 8.83703 2.03332C9.37232 1.76124 9.96952 1.61998 10.5756 1.62209C10.848 1.62221 11.1197 1.64936 11.3862 1.70311C13.1381 2.05729 16.8331 3.00232 17.2486 3.109C14.7286 3.75691 11.3882 4.54925 7.89788 4.93694C7.35432 4.99759 6.80545 5.0364 6.26677 5.05189L6.24506 5.05231Z" fill="#D3E0E7"/>
<path d="M17.2488 33.9996C13.0782 34.0053 9.03978 32.5991 5.84742 30.0294C5.7452 29.9498 5.67188 29.8413 5.63795 29.7194C5.60401 29.5975 5.6112 29.4685 5.65848 29.3507C5.70078 29.2336 5.78055 29.1321 5.88647 29.0608C5.99239 28.9895 6.11908 28.952 6.24855 28.9535C6.2552 28.9535 6.26184 28.9535 6.26871 28.9535C6.81005 28.9683 7.35848 29.0065 7.89893 29.067C11.3543 29.4508 17.4247 30.9433 18.1055 31.1123L18.125 31.1169C19.4237 31.4448 21.7984 32.0344 23.1114 32.2999C23.3775 32.3538 23.6487 32.3811 23.9207 32.3814C24.5186 32.3831 25.1078 32.2454 25.6376 31.9801C23.0595 33.3088 20.1768 34.0029 17.249 34L17.2488 33.9996ZM28.8026 27.7258C28.0663 27.725 27.3306 27.6837 26.5993 27.6019C23.0997 27.2125 19.7752 26.4234 17.2707 25.7793C12.9737 24.6514 9.67335 23.9681 7.17641 23.6907C6.58068 23.6268 5.98172 23.5946 5.38228 23.5942C3.0375 23.5942 2.22837 24.0989 1.9628 24.5223C1.75038 24.8603 1.7856 25.2906 2.06978 25.8011C1.39839 24.7441 0.849657 23.6201 0.433355 22.4489C0.261084 21.9436 0.208576 21.4078 0.279649 20.8806C0.350722 20.3534 0.54359 19.848 0.844233 19.4011C1.15081 18.9406 1.56074 18.5512 2.0442 18.2614C2.52765 17.9716 3.07249 17.7886 3.63909 17.7257C4.32412 17.6487 5.01328 17.6102 5.70301 17.6105C6.43686 17.6115 7.17004 17.6528 7.89893 17.7343C11.3986 18.1229 14.745 18.9182 17.2705 19.5676C17.2904 19.5727 17.3369 19.5854 17.408 19.6049C19.635 20.2125 23.884 21.2855 27.3245 21.6451C27.7343 21.6859 28.146 21.7054 28.558 21.7037C29.6434 21.7037 30.7781 21.5858 31.6723 21.3803C32.7375 21.1353 33.4376 20.7782 33.6968 20.347C33.868 20.0624 33.8496 19.7445 33.6423 19.402C33.8486 19.7078 34.0061 20.0414 34.1096 20.3917C34.1109 20.3912 34.112 20.3905 34.113 20.3896L34.1167 20.4081C34.1167 20.4142 34.1192 20.4204 34.1207 20.4263C34.2062 20.7313 34.2487 21.046 34.247 21.3618C34.247 21.383 34.247 21.4042 34.2447 21.4233C34.2447 21.4352 34.2434 21.4473 34.243 21.4591C34.2385 21.5935 34.226 21.7275 34.2053 21.8604C34.2005 21.8935 34.1954 21.9259 34.1894 21.9588C34.1607 22.1179 34.1208 22.2749 34.07 22.4288V22.4328C34.0695 22.4352 34.0687 22.4375 34.0678 22.4398C33.6213 23.7068 33.0196 24.9186 32.2754 26.0501C31.599 27.077 30.4148 27.7026 29.1062 27.7234C29.0052 27.7249 28.9033 27.7258 28.8026 27.7258ZM28.7997 16.3938C28.0643 16.393 27.3295 16.3515 26.5991 16.2697C23.0994 15.8812 19.7522 15.0859 17.2275 14.4367L17.0946 14.4008C14.8679 13.7928 10.6194 12.7192 7.17286 12.3585C6.76367 12.318 6.35249 12.2985 5.94112 12.3002C4.85578 12.3002 3.72038 12.4181 2.82597 12.6236C1.76101 12.8683 1.06064 13.2257 0.80237 13.6569C0.630931 13.9415 0.649316 14.2594 0.856637 14.6021C0.65007 14.2966 0.492182 13.9633 0.38817 13.6132L0.385955 13.6144C0.383454 13.6087 0.381814 13.6026 0.381082 13.5964C0.379974 13.5903 0.378867 13.5839 0.377095 13.5778C0.291779 13.2727 0.249321 12.9581 0.250841 12.6423C0.250841 12.621 0.250841 12.6011 0.253056 12.5812C0.253056 12.5693 0.254385 12.5574 0.254828 12.5453C0.259437 12.4108 0.272157 12.2767 0.292926 12.1437C0.297799 12.1114 0.303115 12.0788 0.308874 12.0461C0.337688 11.8869 0.377572 11.7298 0.428261 11.5757C0.428982 11.5735 0.429573 11.5713 0.430033 11.5691C0.430033 11.5676 0.430033 11.5662 0.43114 11.5649C0.877403 10.2979 1.47898 9.08598 2.22328 7.9546C2.89951 6.9277 4.08386 6.30206 5.39224 6.28106C5.49192 6.27958 5.59314 6.27873 5.69326 6.27873C6.43037 6.27962 7.16681 6.32111 7.89893 6.40301C11.3884 6.79006 14.7173 7.58007 17.2273 8.22522C21.5301 9.35392 24.8318 10.037 27.3214 10.3138C27.9166 10.3775 28.515 10.4098 29.114 10.4103C31.4599 10.4103 32.269 9.90555 32.5348 9.48202C32.747 9.14396 32.712 8.71386 32.4278 8.20338C33.0993 9.25991 33.6482 10.3835 34.0647 11.5543C34.2368 12.0598 34.2892 12.5958 34.2181 13.1232C34.1469 13.6505 33.9539 14.1561 33.6531 14.6032C33.3466 15.0636 32.9368 15.4528 32.4535 15.7426C31.9702 16.0324 31.4256 16.2155 30.8592 16.2786C30.1754 16.3553 29.4876 16.3937 28.7992 16.3934L28.7997 16.3938ZM28.2493 5.05184H28.2291C27.6915 5.0372 27.1438 4.99924 26.5993 4.93901C23.2478 4.56659 17.5197 3.17215 16.4053 2.89644L16.3737 2.8886C15.071 2.55987 12.691 1.96901 11.3873 1.70518C11.121 1.65124 10.8497 1.62401 10.5775 1.62395C9.97983 1.62213 9.39067 1.75962 8.8609 2.02457C11.9845 0.415572 15.5407 -0.258632 19.069 0.0892328C22.5973 0.437098 25.9354 1.79102 28.651 3.97573C28.7531 4.05513 28.8263 4.16336 28.8603 4.28496C28.8942 4.40657 28.8872 4.53535 28.8402 4.65291C28.7982 4.77054 28.7184 4.87245 28.6123 4.94409C28.5061 5.01573 28.3791 5.05344 28.2493 5.05184Z" fill="url(#paint0_linear_200_6985)"/>
<defs>
<linearGradient id="paint0_linear_200_6985" x1="0.103988" y1="17.0655" x2="34.1039" y2="17.0655" gradientUnits="userSpaceOnUse">
<stop stop-color="#ED0080"/>
<stop offset="0.49" stop-color="#FF5715"/>
<stop offset="1" stop-color="#EAB80F"/>
</linearGradient>
</defs>
</svg>
