<svg width="25" height="24" viewBox="0 0 25 24" fill="none" xmlns="http://www.w3.org/2000/svg">
<g clip-path="url(#clip0_215_3181)">
<g clip-path="url(#clip1_215_3181)">
<rect width="24" height="24" transform="translate(0.166687)" fill="#EEA1EF"/>
<g filter="url(#filter0_f_215_3181)">
<path d="M3.63429 23.2185C-4.95185 19.0984 -3.86497 20.8051 -0.695712 5.12277C2.32715 6.32073 12.576 10.8358 25.1428 18.4242C8.50577 16.8104 12.8913 27.6605 3.63429 23.2185Z" fill="url(#paint0_linear_215_3181)"/>
<path d="M3.63429 23.2185C-4.95185 19.0984 -3.86497 20.8051 -0.695712 5.12277C2.32715 6.32073 12.576 10.8358 25.1428 18.4242C8.50577 16.8104 12.8913 27.6605 3.63429 23.2185Z" fill="url(#paint1_linear_215_3181)" fill-opacity="0.7"/>
</g>
<g filter="url(#filter1_f_215_3181)">
<path d="M8.30514 9.12653C8.88347 9.42852 9.48206 9.69056 10.0979 9.91135C15.5102 10.1923 17.5449 24.9128 25.3958 20.7845L23.3508 25.0765C25.4119 25.3992 29.6903 21.0896 32.5833 22.1562C32.9256 22.2851 33.2587 22.4353 33.5811 22.6063C34.434 23.0532 35.1765 23.8235 35.7742 24.3925C36.4858 25.0701 36.8532 25.7076 36.8355 26.2352C36.8245 26.5839 36.6473 26.8869 36.3089 27.1364C36.6277 26.9229 36.9224 26.6623 37.1833 26.3631L37.1844 26.3652C37.1893 26.3606 37.1937 26.3554 37.1975 26.3496C37.2015 26.3441 37.2056 26.3383 37.2101 26.333C37.4334 26.0701 37.6278 25.7802 37.7882 25.471C37.7991 25.4503 37.8093 25.4308 37.8178 25.4104C37.8239 25.3988 37.8289 25.3866 37.8347 25.3747C37.9 25.2414 38.048 24.9175 38.0998 24.7789C38.1125 24.7454 38.125 24.7113 38.1372 24.677C38.196 24.5096 38.2451 24.3397 38.2842 24.1683C38.2847 24.1659 38.2854 24.1635 38.2862 24.1611C38.2869 24.1597 38.2877 24.1582 38.2875 24.1565C38.5854 22.7348 33.5157 13.2351 33.5099 11.8233C33.5042 10.5415 32.8938 9.44261 31.8764 8.8834C31.7988 8.84091 31.7197 8.79841 31.641 8.75718C31.0613 8.45457 30.4613 8.19189 29.8441 7.97047C26.9038 6.91193 23.8834 6.31321 21.5807 5.91011C17.6216 5.24132 14.6774 4.54938 12.5792 3.79475C12.0789 3.61196 11.5921 3.39705 11.1212 3.15098C9.27768 2.18511 8.90023 1.3588 8.90816 0.835554C8.91447 0.417887 9.16214 0.0120645 9.64678 -0.369697C8.57825 0.386119 7.57172 1.25798 6.64512 2.23035C6.25101 2.65343 5.93548 3.1555 5.72144 3.70008C5.50741 4.24467 5.40025 4.8181 5.40775 5.37871C5.41295 5.95476 5.53573 6.5038 5.76715 6.98594C5.99858 7.46809 6.33285 7.87122 6.74568 8.16607C7.24368 8.52254 7.76459 8.84317 8.30571 9.1263L8.30514 9.12653Z" fill="url(#paint2_radial_215_3181)"/>
<path d="M8.30514 9.12653C8.88347 9.42852 9.48206 9.69056 10.0979 9.91135C15.5102 10.1923 17.5449 24.9128 25.3958 20.7845L23.3508 25.0765C25.4119 25.3992 29.6903 21.0896 32.5833 22.1562C32.9256 22.2851 33.2587 22.4353 33.5811 22.6063C34.434 23.0532 35.1765 23.8235 35.7742 24.3925C36.4858 25.0701 36.8532 25.7076 36.8355 26.2352C36.8245 26.5839 36.6473 26.8869 36.3089 27.1364C36.6277 26.9229 36.9224 26.6623 37.1833 26.3631L37.1844 26.3652C37.1893 26.3606 37.1937 26.3554 37.1975 26.3496C37.2015 26.3441 37.2056 26.3383 37.2101 26.333C37.4334 26.0701 37.6278 25.7802 37.7882 25.471C37.7991 25.4503 37.8093 25.4308 37.8178 25.4104C37.8239 25.3988 37.8289 25.3866 37.8347 25.3747C37.9 25.2414 38.048 24.9175 38.0998 24.7789C38.1125 24.7454 38.125 24.7113 38.1372 24.677C38.196 24.5096 38.2451 24.3397 38.2842 24.1683C38.2847 24.1659 38.2854 24.1635 38.2862 24.1611C38.2869 24.1597 38.2877 24.1582 38.2875 24.1565C38.5854 22.7348 33.5157 13.2351 33.5099 11.8233C33.5042 10.5415 32.8938 9.44261 31.8764 8.8834C31.7988 8.84091 31.7197 8.79841 31.641 8.75718C31.0613 8.45457 30.4613 8.19189 29.8441 7.97047C26.9038 6.91193 23.8834 6.31321 21.5807 5.91011C17.6216 5.24132 14.6774 4.54938 12.5792 3.79475C12.0789 3.61196 11.5921 3.39705 11.1212 3.15098C9.27768 2.18511 8.90023 1.3588 8.90816 0.835554C8.91447 0.417887 9.16214 0.0120645 9.64678 -0.369697C8.57825 0.386119 7.57172 1.25798 6.64512 2.23035C6.25101 2.65343 5.93548 3.1555 5.72144 3.70008C5.50741 4.24467 5.40025 4.8181 5.40775 5.37871C5.41295 5.95476 5.53573 6.5038 5.76715 6.98594C5.99858 7.46809 6.33285 7.87122 6.74568 8.16607C7.24368 8.52254 7.76459 8.84317 8.30571 9.1263L8.30514 9.12653Z" fill="url(#paint3_radial_215_3181)"/>
</g>
<path d="M0.166687 20.3912C7.4013 17.9328 15.6562 12.1756 17.0475 11.1156C18.0214 10.3735 20.0812 8.63642 19.5518 6.94222C18.8622 4.73572 16.434 4.98599 15.0436 5.1293L15.0069 5.13308C10.0617 5.64215 6.05641 6.15335 0.166687 7.22047M0.166687 18.8057C2.7998 18.8979 5.15144 18.2062 6.89117 17.4227" stroke="white" stroke-width="0.418861" stroke-linecap="round"/>
</g>
</g>
<defs>
<filter id="filter0_f_215_3181" x="-9.34907" y="-1.20079" width="40.8154" height="31.8189" filterUnits="userSpaceOnUse" color-interpolation-filters="sRGB">
<feFlood flood-opacity="0" result="BackgroundImageFix"/>
<feBlend mode="normal" in="SourceGraphic" in2="BackgroundImageFix" result="shape"/>
<feGaussianBlur stdDeviation="3.16177" result="effect1_foregroundBlur_215_3181"/>
</filter>
<filter id="filter1_f_215_3181" x="-0.916152" y="-6.69322" width="45.5398" height="40.1532" filterUnits="userSpaceOnUse" color-interpolation-filters="sRGB">
<feFlood flood-opacity="0" result="BackgroundImageFix"/>
<feBlend mode="normal" in="SourceGraphic" in2="BackgroundImageFix" result="shape"/>
<feGaussianBlur stdDeviation="3.16177" result="effect1_foregroundBlur_215_3181"/>
</filter>
<linearGradient id="paint0_linear_215_3181" x1="7.16821" y1="12.2742" x2="5.45582" y2="30.9753" gradientUnits="userSpaceOnUse">
<stop stop-color="#F5837C"/>
<stop offset="0.705278" stop-color="#F5837C" stop-opacity="0"/>
</linearGradient>
<linearGradient id="paint1_linear_215_3181" x1="12.3177" y1="11.0237" x2="7.00685" y2="31.1121" gradientUnits="userSpaceOnUse">
<stop stop-color="#E45E56"/>
<stop offset="1" stop-color="#F5837C" stop-opacity="0"/>
</linearGradient>
<radialGradient id="paint2_radial_215_3181" cx="0" cy="0" r="1" gradientUnits="userSpaceOnUse" gradientTransform="translate(17.1282 4.83412) rotate(156.322) scale(9.25344 14.919)">
<stop offset="0.468105" stop-color="#F6EFC3"/>
<stop offset="0.941593" stop-color="#F3D8DD"/>
</radialGradient>
<radialGradient id="paint3_radial_215_3181" cx="0" cy="0" r="1" gradientUnits="userSpaceOnUse" gradientTransform="translate(24.4972 3.16637) rotate(104.357) scale(17.6429 28.4451)">
<stop offset="0.125598" stop-color="#F3D8DD"/>
<stop offset="0.332866" stop-color="#FFE2AB"/>
<stop offset="0.720307" stop-color="#FEA37D"/>
</radialGradient>
<clipPath id="clip0_215_3181">
<rect x="0.166687" width="24" height="24" rx="7.2" fill="white"/>
</clipPath>
<clipPath id="clip1_215_3181">
<rect width="24" height="24" fill="white" transform="translate(0.166687)"/>
</clipPath>
</defs>
</svg>
