<svg width="47" height="46" viewBox="0 0 47 46" fill="none" xmlns="http://www.w3.org/2000/svg">
<rect x="0.500008" width="46" height="46" rx="23" fill="url(#paint0_linear_215_3175)"/>
<path d="M24.625 17.0625V22.125H29.6875C30.0156 22.125 30.2852 22.2305 30.4961 22.4414C30.707 22.6523 30.8125 22.9219 30.8125 23.25C30.8125 23.5781 30.707 23.8477 30.4961 24.0586C30.2852 24.2695 30.0156 24.375 29.6875 24.375H24.625V29.4375C24.625 29.7656 24.5195 30.0352 24.3086 30.2461C24.0977 30.457 23.8281 30.5625 23.5 30.5625C23.1719 30.5625 22.9024 30.457 22.6914 30.2461C22.4805 30.0352 22.375 29.7656 22.375 29.4375V24.375H17.3125C16.9844 24.375 16.7149 24.2695 16.5039 24.0586C16.293 23.8477 16.1875 23.5781 16.1875 23.25C16.1875 22.9219 16.293 22.6523 16.5039 22.4414C16.7149 22.2305 16.9844 22.125 17.3125 22.125H22.375V17.0625C22.375 16.7344 22.4805 16.4648 22.6914 16.2539C22.9024 16.043 23.1719 15.9375 23.5 15.9375C23.8281 15.9375 24.0977 16.043 24.3086 16.2539C24.5195 16.4648 24.625 16.7344 24.625 17.0625Z" fill="white"/>
<defs>
<linearGradient id="paint0_linear_215_3175" x1="0.303949" y1="23.0886" x2="46.3038" y2="23.0886" gradientUnits="userSpaceOnUse">
<stop stop-color="#ED0080"/>
<stop offset="0.49" stop-color="#FF5715"/>
<stop offset="1" stop-color="#EAB80F"/>
</linearGradient>
</defs>
</svg>
