<svg width="24" height="24" viewBox="0 0 24 24" fill="none" xmlns="http://www.w3.org/2000/svg">
<path d="M4.125 6.0625C4.125 5.14844 4.86328 4.375 5.8125 4.375H9.1875C10.1016 4.375 10.875 5.14844 10.875 6.0625V9.4375C10.875 10.3867 10.1016 11.125 9.1875 11.125H5.8125C4.86328 11.125 4.125 10.3867 4.125 9.4375V6.0625ZM6.375 6.625V8.875H8.625V6.625H6.375ZM4.125 15.0625C4.125 14.1484 4.86328 13.375 5.8125 13.375H9.1875C10.1016 13.375 10.875 14.1484 10.875 15.0625V18.4375C10.875 19.3867 10.1016 20.125 9.1875 20.125H5.8125C4.86328 20.125 4.125 19.3867 4.125 18.4375V15.0625ZM6.375 15.625V17.875H8.625V15.625H6.375ZM14.8125 4.375H18.1875C19.1016 4.375 19.875 5.14844 19.875 6.0625V9.4375C19.875 10.3867 19.1016 11.125 18.1875 11.125H14.8125C13.8633 11.125 13.125 10.3867 13.125 9.4375V6.0625C13.125 5.14844 13.8633 4.375 14.8125 4.375ZM17.625 6.625H15.375V8.875H17.625V6.625ZM13.125 13.9375C13.125 13.6562 13.3711 13.375 13.6875 13.375H15.9375C16.2188 13.375 16.5 13.6562 16.5 13.9375C16.5 14.2539 16.7461 14.5 17.0625 14.5H18.1875C18.4688 14.5 18.75 14.2539 18.75 13.9375C18.75 13.6562 18.9961 13.375 19.3125 13.375C19.5938 13.375 19.875 13.6562 19.875 13.9375V17.3125C19.875 17.6289 19.5938 17.875 19.3125 17.875H17.0625C16.7461 17.875 16.5 17.6289 16.5 17.3125C16.5 17.0312 16.2188 16.75 15.9375 16.75C15.6211 16.75 15.375 17.0312 15.375 17.3125V19.5625C15.375 19.8789 15.0938 20.125 14.8125 20.125H13.6875C13.3711 20.125 13.125 19.8789 13.125 19.5625V13.9375ZM17.0625 20.125C16.7461 20.125 16.5 19.8789 16.5 19.5625C16.5 19.2812 16.7461 19 17.0625 19C17.3438 19 17.625 19.2812 17.625 19.5625C17.625 19.8789 17.3438 20.125 17.0625 20.125ZM19.3125 20.125C18.9961 20.125 18.75 19.8789 18.75 19.5625C18.75 19.2812 18.9961 19 19.3125 19C19.5938 19 19.875 19.2812 19.875 19.5625C19.875 19.8789 19.5938 20.125 19.3125 20.125Z" fill="black"/>
</svg>
