<svg width="14" height="15" viewBox="0 0 14 15" fill="none" xmlns="http://www.w3.org/2000/svg">
<path d="M7 14.75C5.72396 14.7318 4.55729 14.4219 3.5 13.8203C2.44271 13.2005 1.58594 12.3438 0.929688 11.25C0.309896 10.138 0 8.97135 0 7.75C0 6.52865 0.309896 5.36198 0.929688 4.25C1.58594 3.15625 2.44271 2.29948 3.5 1.67969C4.55729 1.07812 5.72396 0.768229 7 0.75C8.27604 0.768229 9.44271 1.07812 10.5 1.67969C11.5573 2.29948 12.4141 3.15625 13.0703 4.25C13.6901 5.36198 14 6.52865 14 7.75C14 8.97135 13.6901 10.138 13.0703 11.25C12.4141 12.3438 11.5573 13.2005 10.5 13.8203C9.44271 14.4219 8.27604 14.7318 7 14.75ZM7 5.125C6.52604 5.125 6.08854 5.24349 5.6875 5.48047C5.28646 5.71745 4.96745 6.03646 4.73047 6.4375C4.49349 6.85677 4.375 7.29427 4.375 7.75C4.375 8.20573 4.49349 8.64323 4.73047 9.0625C4.96745 9.46354 5.28646 9.78255 5.6875 10.0195C6.08854 10.2565 6.52604 10.375 7 10.375C7.47396 10.375 7.91146 10.2565 8.3125 10.0195C8.71354 9.78255 9.03255 9.46354 9.26953 9.0625C9.50651 8.64323 9.625 8.20573 9.625 7.75C9.625 7.29427 9.50651 6.85677 9.26953 6.4375C9.03255 6.03646 8.71354 5.71745 8.3125 5.48047C7.91146 5.24349 7.47396 5.125 7 5.125Z" fill="#3FC440"/>
</svg>
