<svg width="32" height="32" viewBox="0 0 32 32" fill="none" xmlns="http://www.w3.org/2000/svg">
<path d="M7 16.25C7 11.293 11.0078 7.25 16 7.25C20.957 7.25 25 11.293 25 16.25C25 21.2422 20.957 25.25 16 25.25C11.0078 25.25 7 21.2422 7 16.25ZM20.043 14.7031C20.4297 14.3164 20.4297 13.7188 20.043 13.332C19.6562 12.9453 19.0586 12.9453 18.6719 13.332L14.875 17.1289L13.293 15.582C12.9062 15.1953 12.3086 15.1953 11.9219 15.582C11.5352 15.9688 11.5352 16.5664 11.9219 16.9531L14.1719 19.2031C14.5586 19.5898 15.1562 19.5898 15.543 19.2031L20.043 14.7031Z" fill="white"/>
</svg>
