<svg width="84" height="67" viewBox="0 0 84 67" fill="none" xmlns="http://www.w3.org/2000/svg">
<path fill-rule="evenodd" clip-rule="evenodd" d="M3.13125 0C1.30469 0 0 1.43516 0 3.13125C0 4.95781 1.30469 6.2625 3.13125 6.2625H9.00234C9.52422 6.2625 9.91562 6.65391 10.0461 7.17578L16.8305 42.5328C17.6133 46.9687 21.5273 50.1 25.9633 50.1H41.75V48.0125C41.75 46.7078 41.8805 45.2727 42.0109 43.8375H25.9633C24.5281 43.8375 23.2234 42.7938 22.9625 41.3586L22.1797 37.575H44.2289C48.0125 30.1383 55.7102 25.05 64.7125 25.05C66.5391 25.05 68.4961 25.3109 70.1922 25.8328L74.2367 10.8289C75.15 7.43672 72.6711 4.175 69.2789 4.175H15.6562C14.482 1.69609 11.8727 0 9.00234 0H3.13125ZM19.8312 55.1883C17.8742 56.232 16.7 58.3195 16.7 60.5375C16.7 62.8859 17.8742 64.843 19.8312 66.0172C21.6578 67.1914 24.1367 67.1914 26.0938 66.0172C27.9203 64.843 29.225 62.8859 29.225 60.5375C29.225 58.3195 27.9203 56.232 26.0938 55.1883C24.1367 54.0141 21.6578 54.0141 19.8312 55.1883ZM64.7125 29.225C54.275 29.225 45.925 37.7055 45.925 48.0125C45.925 58.45 54.275 66.8 64.7125 66.8C75.0195 66.8 83.5 58.45 83.5 48.0125C83.5 37.7055 75.0195 29.225 64.7125 29.225ZM55.0396 47.6978V48.5695H54.5242C53.3215 48.5695 52.4624 49.6156 52.4624 50.8361C52.4624 52.0565 53.3215 52.9282 54.5242 52.9282H55.8986C57.6167 57.81 62.2556 61.1226 67.41 61.1226H68.7844C69.9871 61.1226 71.018 60.0765 71.018 58.856C71.018 57.81 69.9871 56.7639 68.7844 56.7639H67.41C64.661 56.7639 62.0838 55.1947 60.7093 52.9282H67.0663C68.0972 52.9282 69.1281 52.0565 69.1281 50.8361C69.1281 49.6156 68.0972 48.5695 67.0663 48.5695H59.3349V47.6978H67.0663C68.0972 47.6978 69.1281 46.6517 69.1281 45.4313C69.1281 44.2108 68.0972 43.3391 67.0663 43.3391H60.7093C62.0838 41.0726 64.661 39.5035 67.41 39.5035H68.7844C69.9871 39.5035 71.018 38.6317 71.018 37.4113C71.018 36.1909 69.9871 35.1448 68.7844 35.1448H67.41C62.2556 35.1448 57.6167 38.6317 55.8986 43.3391H54.5242C53.3215 43.3391 52.4624 44.3852 52.4624 45.4313C52.4624 46.6517 53.3215 47.6978 54.5242 47.6978H55.0396Z" fill="#050505" fill-opacity="0.1"/>
</svg>
