<svg width="18" height="15" viewBox="0 0 18 15" fill="none" xmlns="http://www.w3.org/2000/svg">
<path d="M0.25 1.40625C0.286458 1.00521 0.505208 0.786458 0.90625 0.75H2.16406C2.78385 0.786458 3.23958 1.07812 3.53125 1.625H14.7695C15.1341 1.64323 15.4258 1.78906 15.6445 2.0625C15.8451 2.33594 15.9089 2.64583 15.8359 2.99219L14.9883 6.13672C14.6055 6.04557 14.2135 6 13.8125 6C12.8646 6.01823 12.0169 6.26432 11.2695 6.73828C10.5221 7.21224 9.9388 7.84115 9.51953 8.625H4.92578L5.0625 9.41797C5.15365 9.74609 5.3724 9.91927 5.71875 9.9375H9.08203C9.02734 10.2292 9 10.5208 9 10.8125C9 10.9583 9.00911 11.1042 9.02734 11.25H5.71875C5.22656 11.25 4.80729 11.0951 4.46094 10.7852C4.09635 10.4935 3.86849 10.1198 3.77734 9.66406L2.35547 2.25391C2.33724 2.1263 2.27344 2.0625 2.16406 2.0625H0.90625C0.505208 2.02604 0.286458 1.80729 0.25 1.40625ZM3.75 13.4375C3.76823 12.9453 3.98698 12.5625 4.40625 12.2891C4.84375 12.0521 5.28125 12.0521 5.71875 12.2891C6.13802 12.5625 6.35677 12.9453 6.375 13.4375C6.35677 13.9297 6.13802 14.3125 5.71875 14.5859C5.28125 14.8229 4.84375 14.8229 4.40625 14.5859C3.98698 14.3125 3.76823 13.9297 3.75 13.4375ZM9.875 10.8125C9.91146 9.70052 10.2943 8.77083 11.0234 8.02344C11.7708 7.29427 12.7005 6.91146 13.8125 6.875C14.9245 6.91146 15.8542 7.29427 16.6016 8.02344C17.3307 8.77083 17.7135 9.70052 17.75 10.8125C17.7135 11.9245 17.3307 12.8542 16.6016 13.6016C15.8542 14.3307 14.9245 14.7135 13.8125 14.75C12.7005 14.7135 11.7708 14.3307 11.0234 13.6016C10.2943 12.8542 9.91146 11.9245 9.875 10.8125ZM13.1562 12.7812C13.1927 13.1823 13.4115 13.401 13.8125 13.4375C14.2135 13.401 14.4323 13.1823 14.4688 12.7812C14.4323 12.3802 14.2135 12.1615 13.8125 12.125C13.4115 12.1615 13.1927 12.3802 13.1562 12.7812ZM13.375 8.625V10.8125V8.625V10.8125C13.3932 11.0859 13.5391 11.2318 13.8125 11.25C14.0859 11.2318 14.2318 11.0859 14.25 10.8125V8.625C14.2318 8.35156 14.0859 8.20573 13.8125 8.1875C13.5391 8.20573 13.3932 8.35156 13.375 8.625Z" fill="#FBAD02"/>
</svg>
